<?xml version="1.0" encoding="utf-8"?>
<!DOCTYPE svg PUBLIC "-//W3C//DTD SVG 1.0//EN" "http://www.w3.org/TR/2001/REC-SVG-20010904/DTD/svg10.dtd">
<svg version="1.0" xmlns="http://www.w3.org/2000/svg" width="600px" height="600px" viewBox="0 0 600 600" preserveAspectRatio="xMidYMid meet">
 <g fill="#ffffff">
  <path d="M284.5 539.1 c-0.6 -0.5 -3 -1.2 -5.5 -1.5 -12.1 -1.5 -22.6 -3.2 -23.5 -3.7 -0.5 -0.4 -4.7 -1 -9.2 -1.4 -4.6 -0.4 -8.3 -1.1 -8.3 -1.5 0 -0.9 -4.9 -1.5 -22.5 -3 -6.6 -0.5 -13 -1.4 -14.1 -1.9 -1.2 -0.5 -4.2 -1.3 -6.8 -1.6 -2.5 -0.4 -4.6 -1 -4.6 -1.4 0 -0.8 -6.7 -2.9 -12.1 -3.7 -2.4 -0.4 -4.9 -1 -5.4 -1.5 -0.6 -0.4 -3 -1.1 -5.3 -1.5 -2.3 -0.4 -4.2 -1 -4.2 -1.5 0 -0.5 -1 -0.9 -2.1 -0.9 -2.5 0 -11.2 -2.7 -15.1 -4.6 -1.4 -0.8 -3.6 -1.4 -4.7 -1.4 -1.2 0 -2.1 -0.4 -2.1 -1 0 -0.5 -0.9 -1 -2 -1 -1.1 0 -3.9 -1.2 -6.3 -2.7 -4.4 -2.8 -16.7 -14.2 -16.7 -15.5 0 -0.4 -1.8 -2.7 -4 -5 -2.2 -2.4 -4 -4.6 -4 -5.1 0 -0.4 -1.2 -2.1 -2.8 -3.6 -4.4 -4.7 -10.2 -11.9 -10.2 -12.8 0 -0.4 -1.8 -2.4 -4 -4.3 -2.2 -1.9 -4 -4 -4 -4.5 0 -0.6 -1.8 -2.9 -4 -5 -2.2 -2.1 -4 -4.4 -4 -5.1 0 -0.6 -1.5 -2.4 -3.3 -4 -1.9 -1.6 -4.4 -5.1 -5.6 -7.9 -1.3 -2.7 -2.7 -5.8 -3.2 -6.7 -0.5 -1 -0.9 -3.1 -0.9 -4.8 0 -2.7 -2.9 -7 -4.8 -7 -1 0 -14.2 -13.3 -14.2 -14.4 0 -0.5 -1.7 -2.5 -3.8 -4.5 -2.1 -2 -4.7 -5.7 -5.8 -8.3 -1 -2.7 -2.2 -4.8 -2.5 -4.8 -0.4 0 -1 -2.1 -1.4 -4.7 -0.4 -2.7 -1.1 -5.3 -1.6 -5.9 -1 -1.2 -3.1 -22.8 -3 -31.9 0 -9.9 2.1 -35.9 3.1 -38 0.5 -1.1 1.2 -4.4 1.5 -7.2 0.4 -2.9 1 -5.3 1.5 -5.3 0.4 0 1 -1.1 1.4 -2.3 0.6 -2.6 8.2 -11.1 10.7 -11.9 1.8 -0.7 2.9 -13.4 2.9 -34.5 0 -7.1 0.4 -12.3 1 -12.3 0.5 0 1.1 -7.5 1.4 -17.7 0.9 -31.7 3.2 -80.8 3.8 -82.3 0.4 -0.8 0.9 -11.8 1.2 -24.5 0.4 -12.7 1.1 -23.4 1.6 -23.9 0.6 -0.6 1 -2.1 1 -3.6 0.1 -3.2 4 -10 6.5 -11.4 1.1 -0.6 2.3 -1.5 2.7 -2.1 0.4 -0.6 6.7 -1 15.3 -1 8.6 0 14.9 0.4 15.3 1 0.4 0.6 1.6 1.5 2.7 2.1 4.7 2.6 7.4 11.8 9.2 31.7 0.2 3.1 0.8 5.7 1.3 5.7 0.4 0 1.1 4 1.4 9 0.4 4.9 1.1 9.2 1.5 9.5 0.5 0.2 1.2 4.5 1.5 9.5 0.4 4.9 1.2 9.2 1.7 9.5 0.5 0.4 0.9 2.4 0.9 4.6 0 2.1 0.4 3.9 0.9 3.9 0.4 0 1.1 3.6 1.5 8.1 0.4 4.4 1.1 8.8 1.6 9.7 0.5 0.9 1.2 4.3 1.5 7.4 0.4 3.2 1.1 6 1.6 6.3 0.5 0.4 0.9 2.4 0.9 4.6 0 2.1 0.4 3.9 0.9 3.9 0.4 0 1.1 2.7 1.5 6 0.4 3.3 1.1 6.2 1.6 6.5 0.6 0.4 1 1.7 1 3 0 4.3 2.1 7.5 4.9 7.5 1.8 0 4.5 -2 9.6 -7.3 4 -4 8.7 -8.4 10.6 -9.7 1.9 -1.4 5 -4.1 7 -6.2 1.9 -2.1 3.8 -3.8 4.2 -3.8 0.4 0 3.8 -2.3 7.7 -5 3.9 -2.8 7.5 -5 8 -5 0.6 0 1 -0.3 1 -0.8 0 -0.4 2.4 -1.8 5.3 -3.2 2.8 -1.3 5.4 -2.7 5.7 -3.1 0.3 -0.3 4.2 -2.1 8.8 -3.9 4.5 -1.8 8.5 -3.7 8.8 -4.1 0.3 -0.5 1.5 -0.9 2.7 -0.9 1.2 0 3.5 -0.7 5.1 -1.5 1.5 -0.8 3.6 -1.5 4.5 -1.5 1 0 2.6 -0.7 3.7 -1.5 1 -0.8 2.9 -1.5 4.2 -1.5 1.2 0 2.2 -0.4 2.2 -0.9 0 -0.4 2.6 -1.1 5.9 -1.5 3.2 -0.4 6.2 -1 6.5 -1.4 1.1 -1.1 17.8 -3.3 28.9 -3.8 5.3 -0.3 9.7 -1 9.7 -1.5 0 -0.5 5 -0.9 11.5 -0.9 6.4 0 11.5 0.4 11.5 0.9 0 0.5 3.9 1.2 8.8 1.4 12.2 0.7 27.4 2.6 29.3 3.7 0.9 0.5 4.5 1.2 8 1.6 3.5 0.4 6.6 1 6.9 1.3 0.8 1 10.3 4.1 12.6 4.1 1.2 0 3.5 0.7 5 1.5 1.6 0.8 3.7 1.5 4.7 1.5 0.9 0 1.7 0.5 1.7 1 0 0.6 0.7 1 1.5 1 0.8 0 2.9 0.6 4.7 1.4 1.8 0.8 5.3 2.2 7.8 3.2 2.5 1 4.7 2.1 5 2.4 0.5 0.5 4 2.5 10.6 6 1.7 0.9 6.1 3.7 9.8 6.3 3.7 2.6 7.1 4.7 7.6 4.7 0.5 0 1.3 0.6 1.7 1.3 0.4 0.8 2 2.2 3.6 3.2 1.5 1 4.9 3.9 7.6 6.6 2.7 2.7 5.3 4.9 5.8 4.9 0.5 0 3.3 2.5 6.3 5.5 3 3 6 5.5 6.8 5.5 2.1 0 4.2 -2.6 4.2 -5.4 0 -1.4 0.4 -2.7 0.9 -3 0.5 -0.3 1.2 -3.3 1.6 -6.6 0.4 -3.3 1.1 -6 1.5 -6 0.4 0 1 -1.5 1.3 -3.2 0.4 -1.8 1.3 -7.1 2.2 -11.8 0.9 -4.7 2.2 -11.7 2.8 -15.7 0.7 -3.9 1.5 -7.5 2 -7.9 0.4 -0.4 0.7 -2.5 0.7 -4.6 0 -2.2 0.4 -4.8 1 -5.8 0.5 -1 1.3 -5.1 1.6 -9.2 0.4 -4 1 -7.8 1.5 -8.3 0.4 -0.6 1.1 -5 1.5 -9.8 0.4 -4.8 1 -8.7 1.4 -8.7 0.5 0 1.1 -2.6 1.3 -5.7 1 -10.6 2.8 -22.8 3.7 -24.8 0.5 -1.1 1.2 -3 1.5 -4.2 0.4 -1.3 1.1 -2.3 1.6 -2.3 0.5 0 0.9 -0.7 0.9 -1.5 0 -0.9 0.8 -1.9 1.8 -2.2 0.9 -0.4 2 -1.1 2.4 -1.7 0.9 -1.4 29.6 -1.5 30.6 -0.1 0.4 0.6 1.6 1.5 2.7 2.1 3 1.6 6.5 7.3 6.5 10.5 0 1.5 0.5 2.9 1.1 3.1 0.7 0.2 1.2 7.3 1.6 20.3 0.2 11 0.7 20.7 1.1 21.5 0.6 1.5 2.8 48.7 3.8 80.5 0.2 8.8 0.8 16.9 1.3 18 0.5 1.1 1.2 13.4 1.6 27.3 0.6 25.2 1.2 29.2 4.2 29.2 1.6 0 9.3 8.1 9.3 9.7 0 0.7 0.4 1.3 0.9 1.3 0.5 0 1.3 1.4 1.6 3.2 0.4 1.8 1.1 3.9 1.6 4.8 1.2 2.1 3 16.7 3.6 28.3 0.2 5.3 0.9 9.7 1.4 9.7 1.2 0 1.2 12.3 0 13.6 -0.5 0.5 -1.2 4.7 -1.4 9.4 -0.6 10.2 -2.4 21.1 -3.7 22.4 -0.6 0.6 -1 1.7 -1 2.6 0 2.5 -5 11.1 -9.4 16.3 -6.6 7.8 -16.3 17.7 -17.3 17.7 -2.4 0 -5.1 4.8 -5.8 10.3 -0.3 3.1 -1 5.7 -1.5 5.7 -0.4 0 -1.1 1.1 -1.4 2.5 -0.6 2.2 -2.5 4.7 -13.1 17 -1.9 2.2 -5.5 6.5 -8 9.5 -2.5 3 -5.9 7 -7.5 8.8 -1.7 1.8 -3 3.6 -3 4 0 0.4 -1.4 2.1 -3 3.9 -1.7 1.8 -3 3.5 -3 3.9 0 0.9 -5.7 7.4 -15 17.1 -7 7.3 -9.2 8.8 -18.5 12.3 -1.1 0.4 -3.3 1.3 -4.8 1.9 -6.1 2.5 -14.7 5.1 -16.6 5.1 -1.1 0 -2.2 0.4 -2.5 0.9 -0.3 0.5 -2.3 1.2 -4.3 1.6 -2.1 0.4 -4.2 1 -4.8 1.5 -0.5 0.4 -3.1 1.1 -5.7 1.4 -2.6 0.4 -5 1.1 -5.3 1.7 -0.4 0.5 -1.9 0.9 -3.5 0.9 -1.6 0 -3.1 0.4 -3.4 0.9 -0.3 0.5 -2.7 1.2 -5.3 1.6 -2.7 0.4 -5.3 1.1 -5.9 1.6 -0.6 0.5 -6.4 1.3 -13 1.9 -17.7 1.5 -22.4 2.1 -22.4 3 0 0.4 -3.9 1 -8.7 1.4 -4.8 0.4 -9.2 1 -9.8 1.4 -0.9 0.6 -11.3 2.2 -24.7 3.8 -2.7 0.3 -4.8 1 -4.8 1.5 0 1.2 -31.3 1.2 -32.5 0z m33 -19.7 c5.5 -0.8 11.6 -1.9 13.5 -2.4 1.9 -0.5 6.5 -1.2 10.3 -1.5 3.7 -0.4 7 -1.1 7.3 -1.6 0.3 -0.5 3.2 -0.9 6.4 -0.9 6.4 0 7.8 -1 6.2 -4.3 -1 -2.2 -3 -12.6 -3.9 -20.2 -0.2 -2.2 -1.1 -5.4 -1.9 -7.2 -0.8 -1.7 -1.4 -4 -1.4 -5.2 0 -1.2 -0.4 -2.1 -0.9 -2.1 -0.4 0 -1.1 -2.3 -1.4 -5.2 -0.4 -2.8 -1.1 -5.6 -1.7 -6.2 -0.5 -0.5 -1 -2 -1 -3.2 0 -1.2 -0.7 -3.5 -1.5 -5 -0.8 -1.6 -1.5 -3.9 -1.5 -5.1 0 -1.3 -0.4 -2.3 -1 -2.3 -0.5 0 -1 -0.7 -1 -1.5 0 -2.8 -11.7 -25.5 -13.1 -25.5 -0.5 0 -0.9 -0.7 -0.9 -1.5 0 -0.8 -0.4 -1.5 -0.8 -1.5 -0.4 0 -1.6 -1.5 -2.7 -3.2 -2.5 -4.3 -9.6 -11.4 -12.3 -12.2 -1.2 -0.4 -2.2 -1.2 -2.2 -1.7 0 -0.5 -1.1 -0.9 -2.4 -0.9 -1.4 0 -2.7 -0.4 -3 -0.9 -1.2 -1.8 -6.6 -2 -11.3 -0.3 -5.1 1.8 -10.2 5.1 -14.4 9.2 -2.7 2.7 -10.1 12.6 -11.2 15 -0.4 0.8 -2.1 3.8 -3.7 6.5 -1.7 2.8 -3.3 5.7 -3.6 6.5 -0.3 0.8 -1.2 2.7 -2 4.2 -0.8 1.4 -1.4 3.3 -1.4 4.1 0 0.9 -0.6 2.8 -1.4 4.4 -2.8 5.6 -5.7 13.9 -6.7 19.3 -1.6 8.9 -3.3 15 -4.1 15 -0.4 0 -0.8 1.5 -0.8 3.3 0 1.7 -0.5 5 -1.1 7.2 -0.8 3.4 -2.1 10.4 -3.1 18 -0.3 1.7 0.3 2 4.7 2.3 2.8 0.1 5.9 0.7 7 1.2 1.1 0.5 5.4 1.3 9.5 1.9 4.1 0.5 11.8 1.7 17 2.6 20.2 3.4 21 3.4 37.5 0.9z m-88.2 -13.1 c0.9 -5.9 3.2 -15.1 4 -15.9 0.4 -0.4 0.7 -2 0.7 -3.4 0 -1.5 0.7 -4.4 1.5 -6.3 0.8 -2 1.5 -4.7 1.5 -6.1 0 -1.3 0.7 -3.7 1.5 -5.2 0.8 -1.6 1.5 -3.9 1.5 -5.1 0 -1.3 0.5 -2.3 1 -2.3 0.6 0 1 -1.5 1 -3.3 0 -1.8 0.7 -4.2 1.5 -5.3 0.8 -1 1.5 -2.9 1.5 -4 0 -1.2 0.7 -3.5 1.5 -5 0.8 -1.6 1.5 -3.7 1.5 -4.6 0 -1 0.5 -1.8 1 -1.8 0.6 0 1 -0.7 1 -1.6 0 -1.5 2 -6.7 4.1 -10.6 0.5 -1 2.4 -4.6 4.1 -8 1.8 -3.5 3.9 -6.9 4.5 -7.6 0.7 -0.7 1.3 -1.7 1.3 -2.2 0 -1.7 13.6 -14.5 17 -16.1 1.9 -0.9 4.7 -2.2 6.2 -2.9 3.6 -1.7 25 -1.9 25.6 -0.2 0.2 0.7 1.2 1.2 2.3 1.2 5.3 0 19.5 11.8 23.4 19.3 2 4 3.8 7 4.6 7.7 0.4 0.3 0.9 1.5 1.3 2.8 0.4 1.2 1.2 2.2 1.7 2.2 0.5 0 0.9 0.9 0.9 1.9 0 2.1 3 8.4 4.3 8.9 0.4 0.2 0.7 1.1 0.7 2 0 1 0.7 3 1.5 4.6 0.8 1.5 1.5 3.6 1.5 4.6 0 1 0.7 3.1 1.5 4.6 0.8 1.6 1.5 3.7 1.5 4.7 0 0.9 0.4 1.7 0.9 1.7 0.5 0 1.1 2.3 1.5 5 0.4 2.8 1.1 5 1.6 5 0.6 0 1 1.4 1 3.1 0 2.8 1.8 9.6 4.1 15.4 0.9 2.2 2.8 10.4 3.5 15 0.3 1.7 1 4.9 1.6 7.3 l1.1 4.2 5 0 c4.8 0 7 -0.4 18.7 -3.6 13.1 -3.6 16.6 -4.6 18.1 -5.4 0.9 -0.5 3.7 -1.1 6.3 -1.5 5.6 -0.9 6 -2.3 0.9 -2.7 -3.5 -0.3 -3.8 -0.6 -4.1 -3.6 -0.2 -1.8 0.4 -4.6 1.2 -6.4 0.9 -1.7 1.6 -4.5 1.6 -6.3 0 -1.7 0.5 -3.6 1.1 -4.2 1.3 -1.3 1.3 -19.3 -0.1 -20.7 -0.5 -0.5 -1 -2.8 -1 -5.1 0 -2.3 -0.5 -4.6 -1.1 -5.2 -0.5 -0.5 -1.3 -3.6 -1.6 -6.7 l-0.6 -5.6 4.7 0 c3.8 0 4.6 0.3 4.6 1.8 0 1 0.5 2.3 1.1 2.9 0.5 0.5 1.3 3.6 1.6 6.7 0.3 3.1 1 5.6 1.4 5.6 1.3 0 1.1 31.7 -0.1 32.5 -0.5 0.3 -1 2.1 -1 3.8 0 1.8 -0.7 4.5 -1.5 6.1 -1.9 3.6 -1.9 4.6 0.1 4.6 1.7 0 10.7 -2.7 13.4 -4 0.9 -0.4 3 -1.1 4.8 -1.5 1.8 -0.3 3.2 -1.1 3.2 -1.6 0 -0.5 0.9 -0.9 1.9 -0.9 3 0 8.2 -3.1 12.8 -7.7 2.4 -2.4 4.3 -4.5 4.3 -4.8 0 -0.5 3.3 -4.6 6.3 -7.7 0.9 -1 1.7 -2.2 1.7 -2.8 0 -0.5 0.4 -1 0.8 -1 0.5 0 2.3 -1.9 4 -4.2 1.7 -2.4 4.2 -5.5 5.6 -7 1.4 -1.5 2.6 -3.2 2.6 -3.8 0 -0.5 0.4 -1 0.8 -1 0.5 0 2.3 -1.9 4 -4.2 1.7 -2.4 4.1 -5.4 5.4 -6.8 1.3 -1.4 3.9 -4.5 5.8 -7 3.7 -4.9 6.1 -7.7 10.1 -11.8 3.6 -3.8 4.1 -7.6 2.9 -23.2 -0.6 -7.4 -1.5 -19.8 -2.1 -27.5 -1 -14.6 -2.9 -29.3 -4.1 -31 -0.3 -0.5 -0.9 -3.1 -1.3 -5.8 -0.4 -2.6 -1.1 -5 -1.6 -5.3 -0.5 -0.3 -0.9 -1.8 -0.9 -3.3 0 -1.6 -0.7 -4.2 -1.5 -5.7 -0.8 -1.6 -1.5 -3.7 -1.5 -4.6 0 -0.9 -0.4 -1.9 -0.9 -2.2 -0.5 -0.3 -1.2 -2.2 -1.5 -4.1 -0.4 -1.9 -1.1 -3.5 -1.6 -3.5 -0.6 0 -1 -1.1 -1 -2.5 0 -1.4 -0.4 -2.5 -1 -2.5 -0.5 0 -1 -0.5 -1 -1.1 0 -1.8 -4.3 -9.9 -5.2 -9.9 -0.4 0 -0.8 -0.6 -0.8 -1.3 0 -0.8 -1.8 -4 -4.1 -7.2 -4.2 -6.1 -5.6 -10.6 -4.5 -14.9 0.5 -2.1 1.2 -2.6 4 -2.6 4 0 7.7 2.7 10 7.2 0.9 1.8 3 5.6 4.7 8.3 1.6 2.8 3.2 5.7 3.6 6.5 0.8 2.1 5.2 11.9 6.9 15.4 0.8 1.6 1.4 3.6 1.4 4.5 0 0.9 0.7 2.5 1.5 3.5 0.8 1.1 1.5 3 1.5 4.3 0 1.3 0.3 2.3 0.8 2.3 0.7 0 2.2 4.6 4.2 13.5 0.5 2.2 1.6 6.9 2.5 10.5 3.6 14.9 6.2 35.5 6.4 50.7 l0.1 5.2 2.8 -2.7 c1.6 -1.5 3.1 -3.5 3.5 -4.5 0.3 -0.9 1.1 -1.7 1.7 -1.7 0.5 0 1 -0.4 1 -0.9 0 -0.5 1.8 -2.8 3.9 -5.1 3.6 -3.9 5.2 -6.5 7.9 -13 0.6 -1.4 1.7 -8.1 2.5 -15 1.2 -10.6 1.2 -14.8 0 -28.5 -0.8 -8.8 -1.8 -16.8 -2.3 -17.7 -0.6 -1 -1 -2.5 -1 -3.3 0 -1.8 -2.7 -6.3 -5 -8.5 -2.4 -2.2 -7.9 -5 -10 -5 -2 0 -8.3 -3 -8.8 -4.2 -0.2 -0.5 -0.9 -0.8 -1.6 -0.8 -0.6 0 -1.9 -0.8 -2.7 -1.7 -2.5 -2.8 -9.8 -9.3 -10.4 -9.3 -0.3 0 -1.6 -1.1 -2.9 -2.5 -1.3 -1.4 -2.9 -2.5 -3.5 -2.5 -0.6 0 -1.4 -0.7 -1.7 -1.5 -0.4 -0.8 -1.2 -1.5 -2 -1.5 -0.8 0 -1.4 -0.5 -1.4 -1 0 -0.6 -0.8 -1.4 -1.7 -1.7 -1 -0.4 -2.9 -1.7 -4.3 -3 -1.4 -1.3 -3 -2.3 -3.6 -2.3 -0.7 0 -1.4 -0.7 -1.8 -1.5 -0.3 -0.8 -1.2 -1.5 -2 -1.5 -0.8 0 -1.6 -0.4 -1.8 -0.8 -0.1 -0.5 -2.4 -2 -4.9 -3.4 -3.7 -2.1 -5.5 -2.5 -9.4 -2.1 l-4.7 0.6 -6.2 -6.8 c-10.7 -11.9 -34.7 -35.5 -36.1 -35.5 -0.3 0 -1.6 -1 -2.8 -2.3 -1.2 -1.3 -2.9 -2.7 -3.7 -3 -2.7 -1.2 -5.4 -3.2 -7.7 -5.5 -1.2 -1.2 -2.8 -2.2 -3.6 -2.2 -0.8 0 -2 -0.6 -2.6 -1.4 -0.7 -0.8 -2.6 -2.1 -4.4 -3 -1.8 -0.9 -3.9 -2.1 -4.7 -2.5 -2.7 -1.6 -12.4 -6 -14.7 -6.6 -1.3 -0.4 -2.3 -1.1 -2.3 -1.6 0 -0.5 -1.3 -0.9 -3 -0.9 -1.6 0 -3 -0.4 -3 -1 0 -0.5 -0.5 -1 -1 -1 -1 0 5.7 11.5 8.7 15.1 2.2 2.6 1.5 8.2 -1.8 14.5 -4.2 7.7 -11.1 18.8 -12.1 19.2 -0.4 0.2 -0.8 1 -0.8 1.8 0 0.8 -0.7 1.7 -1.5 2 -0.8 0.4 -1.5 1.2 -1.5 2 0 1.2 -5.5 10 -7.1 11.4 -0.3 0.3 -0.8 1.2 -1.2 2 -0.8 1.7 -3 5.3 -3.7 6 -1 1 -3.1 4.5 -3.6 6.3 -0.4 0.9 -1.5 1.7 -2.5 1.7 -1.1 0 -1.9 0.5 -1.9 1 0 1.4 -79.2 1.3 -84.2 -0.1 -2.1 -0.5 -3.8 -1.6 -3.8 -2.4 0 -0.7 -0.3 -1.5 -0.7 -1.7 -0.5 -0.1 -3 -3.5 -5.7 -7.5 -2.7 -4 -5.6 -8 -6.5 -9 -0.9 -1 -2 -2.5 -2.4 -3.3 -1.3 -2.7 -13.6 -21.1 -14.7 -22 -0.4 -0.3 -1 -1.2 -1.3 -2 -0.4 -0.8 -1.8 -3.3 -3.2 -5.5 -3.9 -6.4 -3.4 -12.3 1.6 -20.4 2.3 -3.6 4.8 -7.2 5.7 -7.8 0.9 -0.7 1.1 -1.3 0.5 -1.3 -0.7 0 -1.5 0.5 -1.8 1 -0.3 0.5 -1.6 1 -2.9 1 -1.2 0 -3.1 0.7 -4.2 1.5 -1 0.8 -2.6 1.5 -3.6 1.5 -0.9 0 -1.8 0.3 -2 0.8 -0.1 0.4 -2.1 1.5 -4.3 2.6 -2.2 1 -4.7 2.2 -5.5 2.7 -0.8 0.5 -2.9 1.6 -4.7 2.5 -1.8 0.9 -3.7 2.2 -4.4 3 -0.6 0.8 -1.7 1.4 -2.3 1.4 -0.6 0 -2.3 1.1 -3.8 2.5 -1.5 1.4 -3.1 2.5 -3.5 2.5 -0.5 0 -2.3 1.4 -4.1 3 -1.8 1.7 -3.5 3 -3.8 3 -2 0 -35.4 34.2 -35.4 36.2 0 0.4 -0.7 0.8 -1.5 0.8 -0.8 0 -1.5 0.6 -1.5 1.4 0 0.8 -1.2 2.4 -2.7 3.6 -2.3 1.9 -3.7 2.1 -8 1.7 -2.9 -0.3 -5.3 -0.2 -5.3 0.3 0 0.4 -1 1 -2.3 1.4 -1.2 0.3 -3.1 1.4 -4.2 2.4 -1.1 1 -2.7 2.1 -3.5 2.5 -2.4 1.1 -5.2 3 -7.9 5.4 -1.4 1.3 -2.9 2.3 -3.2 2.3 -0.3 0 -1.6 0.9 -2.8 1.9 -1.2 1.1 -4.1 3.4 -6.4 5.3 -2.2 1.8 -4.9 4.1 -5.9 5.1 -1 0.9 -2 1.7 -2.2 1.7 -0.3 0 -2.6 2 -5.2 4.5 -4.9 4.8 -12 8.5 -16 8.5 -1.3 0 -2.4 0.4 -2.4 0.9 0 0.5 -1 1.3 -2.2 1.7 -3.2 1 -7.8 5.9 -7.8 8.2 0 1.1 -0.5 2.2 -1 2.4 -2.3 0.7 -5 33.8 -3.9 46.4 1.7 19.4 3.5 23.9 14 35.5 1.3 1.4 3.8 4.3 5.4 6.4 l3 3.9 0.6 -6.5 c1.9 -20.8 3.2 -31.6 3.9 -33.4 0.8 -2 2.6 -11.3 3.7 -19 0.3 -2.2 0.9 -4.4 1.3 -5 0.5 -0.5 1.1 -2.8 1.5 -5 0.4 -2.2 1.1 -4.4 1.5 -5 0.4 -0.5 1 -2.7 1.4 -4.7 0.4 -2.1 1.1 -3.8 1.6 -3.8 0.6 0 1 -1.6 1 -3.5 0 -1.9 0.4 -3.5 0.9 -3.5 0.5 0 1.2 -1.3 1.6 -3 0.4 -1.7 1.1 -3 1.6 -3 0.5 0 0.9 -0.9 0.9 -2.1 0 -1.8 1.1 -4.4 4.1 -9.9 0.5 -0.8 1.6 -3.1 2.5 -5 1 -1.9 3.7 -6.8 6.2 -10.8 l4.4 -7.2 5.4 0 5.4 0 0 4.1 c0 3.5 -2.1 9.1 -4.1 10.9 -1 1 -6.9 11.1 -6.9 11.9 0 0.5 -0.4 1.1 -0.8 1.3 -1.1 0.4 -7.2 13 -7.2 14.9 0 0.8 -0.7 2.3 -1.5 3.3 -0.8 1.1 -1.5 3 -1.5 4.3 0 1.3 -0.4 2.3 -1 2.3 -0.5 0 -1 1.2 -1 2.8 0 1.5 -0.7 4 -1.5 5.6 -0.8 1.5 -1.5 3.9 -1.5 5.3 0 1.3 -0.5 3.3 -1 4.3 -1 1.9 -2.2 8.5 -4 22 -2.2 17.1 -3 27.7 -3.1 43.9 l-0.1 17.2 5.8 6.7 c3.2 3.7 6.1 6.9 6.4 7.2 0.3 0.3 3.2 3.9 6.5 8 3.3 4.1 6.5 8 7 8.6 2.3 2.5 9.1 10.9 10.5 12.8 0.8 1.2 2.7 3.5 4.3 5.1 1.5 1.7 3.5 4.2 4.5 5.8 0.9 1.5 2 2.7 2.4 2.7 0.4 0 0.8 0.5 0.8 1 0 0.6 0.8 1.8 1.8 2.8 0.9 1 2.7 2.9 3.9 4.3 2.8 3.1 4.1 4 8.3 6 7.9 3.8 10.9 4.9 12.9 4.9 1.2 0 2.1 0.5 2.1 1 0 0.6 1 1 2.3 1 1.2 0 3.5 0.7 5.1 1.5 1.5 0.8 3.8 1.5 5 1.5 1.2 0 2.6 0.4 3.1 0.9 0.9 0.8 3.6 1.6 15.8 4.3 2.6 0.6 4.7 1.5 4.7 1.9 0 0.5 1.2 0.9 2.6 0.9 2.4 0 5.4 0.8 14.9 3.8 1.7 0.6 5.8 1 9.1 1.1 l6.2 0.1 0.5 -3.7z m-160.3 -237.4 c0 -0.5 0.5 -0.9 1.1 -0.9 0.6 0 1.6 -0.6 2.3 -1.2 0.7 -0.7 2.8 -2.4 4.6 -3.8 1.9 -1.4 5.4 -4.4 7.9 -6.7 2.5 -2.4 4.9 -4.3 5.3 -4.3 0.4 0 2.5 -1.8 4.7 -4 2.2 -2.2 4.4 -4 5 -4 0.6 0 1.1 -0.4 1.1 -1 0 -0.5 1.3 -1.6 2.9 -2.5 1.6 -0.8 3.6 -2.2 4.5 -3 0.8 -0.9 3.8 -1.9 6.6 -2.2 4.2 -0.5 5 -0.9 4.4 -2.2 -0.4 -0.9 -1.3 -3.7 -2 -6.4 -0.7 -2.6 -1.5 -5.1 -1.9 -5.6 -0.3 -0.5 -0.9 -2.9 -1.4 -5.3 -0.5 -2.4 -1.9 -7.6 -3 -11.5 -1.2 -4 -2.1 -8.4 -2.1 -9.9 0 -1.4 -0.4 -3.3 -1 -4.3 -0.5 -1 -1.4 -4.5 -1.9 -7.7 -0.6 -3.2 -1.8 -9.3 -2.7 -13.4 -0.9 -4.1 -2 -10 -2.4 -13 -1.2 -7.9 -3.1 -18.9 -4 -23 -1.9 -8.2 -4 -21 -4 -24.1 0 -1.9 -0.7 -6.6 -1.5 -10.4 -0.8 -3.9 -1.5 -8.7 -1.5 -10.7 0 -4.9 -1.6 -8.1 -4.9 -10.1 -2.6 -1.5 -2.9 -1.5 -6.3 0.8 l-3.6 2.5 -0.5 11.2 c-0.6 15.5 -2.6 54 -3.7 72.8 -0.9 15 -3.5 68.6 -4.4 93.7 -0.4 10.4 -0.3 12.1 1 11.6 0.7 -0.3 1.4 -0.9 1.4 -1.4z m465 -7 c-0.5 -4.6 -1 -13.1 -1 -18.9 0 -9.8 -1.7 -46.5 -4 -86.5 -0.5 -9.3 -1.5 -26.9 -2.1 -39 -2.1 -40.5 -1.7 -37.2 -5.2 -39 -3.4 -1.7 -6.7 -2 -6.7 -0.5 0 0.6 -0.6 1 -1.4 1 -0.8 0 -1.6 1.4 -2 3.3 -0.6 3.4 -3.3 20.6 -4.6 29.7 -1 7 -3.6 22.1 -5.5 33 -0.9 4.7 -2 11 -2.5 14 -0.5 3 -1.6 8.9 -2.5 13 -0.9 4.1 -2 10.1 -2.6 13.3 -0.5 3.2 -1.3 6.7 -1.9 7.7 -0.5 1 -1 3.4 -1 5.4 0 1.9 -0.4 3.8 -1 4.1 -0.5 0.3 -1.2 2.8 -1.6 5.5 -0.4 2.8 -1 5 -1.5 5 -0.5 0 -0.9 1.5 -0.9 3.3 0 1.7 -0.7 4.5 -1.5 6.1 -0.8 1.5 -1.5 3.6 -1.5 4.6 0 1 -0.7 3.1 -1.5 4.6 l-1.5 2.9 5.3 0.8 c2.8 0.4 5.4 1.2 5.5 1.7 0.2 0.6 0.8 1 1.4 1 0.9 0 8.3 5.3 9.8 7 0.3 0.3 1.7 1.5 3.2 2.6 1.5 1.2 5.5 4.6 9 7.7 3.5 3 8.6 7.2 11.3 9.3 2.8 2.1 5.2 4.1 5.5 4.4 0.6 0.8 3.4 1.8 3.8 1.5 0.2 -0.1 -0.2 -4 -0.8 -8.6z m-213.5 -14.6 c15.5 -0.6 17.1 -0.8 18.7 -2.7 0.9 -1.2 1.7 -2.4 1.8 -2.7 0 -0.4 1.8 -3.4 4 -6.7 2.2 -3.3 4 -6.3 4 -6.6 0 -0.4 0.5 -1.2 1 -1.9 0.6 -0.7 3.8 -5.5 7.3 -10.7 3.4 -5.2 6.5 -9.6 6.9 -9.8 0.5 -0.2 0.8 -1.2 0.8 -2.2 0 -1 0.7 -2 1.5 -2.4 0.8 -0.3 1.5 -1.2 1.5 -2 0 -0.8 0.4 -1.6 0.9 -1.8 0.4 -0.1 1.1 -1.2 1.5 -2.3 0.4 -1.5 -1 -4.6 -4.9 -10.9 -3.7 -5.8 -5.5 -9.8 -5.5 -11.9 0 -3.9 -3.1 -5.7 -9.7 -5.7 -2.4 0 -4.3 -0.4 -4.3 -0.9 0 -0.5 -2.6 -1.2 -5.7 -1.6 -3.2 -0.4 -6.9 -1 -8.3 -1.5 -1.4 -0.4 -9.5 -1.6 -18 -2.6 -15.1 -1.6 -15.9 -1.6 -33.5 0.4 -17.9 2.1 -22.5 2.8 -32 5.2 -7.3 1.8 -7.8 2.2 -9.5 7.6 -0.9 2.7 -2.8 6.9 -4.3 9.2 -6.5 10 -6.6 10.3 -5.5 12.8 0.6 1.3 1.4 2.4 1.8 2.4 0.4 0 1 0.8 1.4 1.8 0.3 0.9 1.4 2.9 2.3 4.3 7.6 11.3 11.9 17.4 12.6 17.7 0.4 0.2 0.7 1 0.7 1.8 0 0.8 0.4 1.4 0.9 1.4 0.6 0 2 1.8 3.2 4 1.3 2.2 2.6 4 3 4 0.4 0 0.9 0.8 1.3 1.8 0.7 2.3 2.5 4.9 6 8.9 l2.9 3.3 10.6 0.1 c5.8 0.1 13.5 0.5 17.1 0.9 3.6 0.4 7.4 0.6 8.5 0.4 1.1 -0.2 9.6 -0.7 19 -1.1z"/>
  <path d="M171 493.1 c-0.5 -1.1 -1 -2.9 -1 -4 0 -1 -0.5 -2.1 -1.1 -2.3 -1.6 -0.5 -2.4 -31.6 -1.1 -38.8 1.6 -8.6 3.2 -14.3 4.4 -15.7 0.8 -1 0.4 -1.3 -2 -1.3 -1.7 0 -3.2 -0.3 -3.4 -0.7 -0.1 -0.5 -2.4 -1.9 -5 -3.3 -2.7 -1.3 -4.8 -2.8 -4.8 -3.2 0 -0.5 -0.5 -0.8 -1 -0.8 -0.6 0 -2.9 -1.7 -5.1 -3.7 -2.2 -2 -4.9 -4.4 -6 -5.2 -3.5 -2.7 -12.2 -11.5 -17.4 -17.6 -2.8 -3.2 -6.2 -7.1 -7.7 -8.6 -1.6 -1.6 -2.8 -3.1 -2.8 -3.4 0 -0.3 -1.3 -2 -2.9 -3.8 -1.7 -1.7 -4.2 -5.4 -5.7 -8.2 -2.6 -5 -2.6 -5.5 -2.2 -19.3 0.2 -9.4 0.8 -14.6 1.6 -15.4 0.6 -0.6 1.2 -3.4 1.2 -6 0 -2.6 0.4 -4.8 0.9 -4.8 0.5 0 1.1 -2.2 1.5 -5 0.4 -2.7 1 -5.2 1.5 -5.4 0.5 -0.3 1.2 -2.6 1.5 -5.1 0.4 -2.5 1.1 -4.5 1.7 -4.5 0.5 0 0.9 -1 0.9 -2.2 0 -1.3 0.7 -3.2 1.5 -4.2 0.8 -1.1 1.5 -2.8 1.5 -3.8 0 -1 0.5 -1.8 1 -1.8 0.6 0 1 -0.9 1 -1.9 0 -1.1 0.7 -2.6 1.5 -3.5 0.8 -0.8 1.5 -1.9 1.5 -2.5 0 -0.6 1.1 -2.9 2.5 -5.1 2.1 -3.3 3.1 -4 5.6 -4 1.7 0 4.4 0.7 6 1.5 1.6 0.8 4.2 2.2 5.8 3 1.6 0.8 3.6 1.5 4.5 1.5 0.9 0 1.6 0.5 1.6 1 0 0.6 0.7 1 1.6 1 0.9 0 2.8 0.6 4.2 1.4 5.6 3 15.9 7.6 17 7.6 0.7 0 1.2 0.5 1.2 1 0 0.6 0.6 1 1.4 1 0.8 0 4.4 1.4 7.9 3 3.6 1.7 7 3 7.6 3 0.6 0 1.1 0.5 1.1 1 0 0.6 0.6 1 1.4 1 0.7 0 2.7 0.7 4.2 1.5 1.6 0.8 3.7 1.5 4.6 1.5 0.9 0 1.9 0.4 2.2 0.9 0.4 0.5 2.4 1.2 4.6 1.6 2.2 0.4 4 1 4 1.5 0 0.4 1.5 1 3.3 1.3 3.5 0.5 11.3 2.5 13.7 3.5 3.7 1.4 18.8 4.1 34 6.1 9.7 1.3 52.3 1.3 62 0 19.5 -2.4 34.5 -5 35.6 -6.2 0.4 -0.4 2.1 -0.7 3.8 -0.7 1.7 0 4.4 -0.7 6 -1.5 1.5 -0.8 3.8 -1.5 5 -1.5 1.1 0 3.4 -0.7 5 -1.5 1.5 -0.8 3.7 -1.5 4.7 -1.5 1.1 0 1.9 -0.4 1.9 -0.9 0 -0.5 1.8 -1.2 4 -1.6 2.2 -0.4 4 -1.1 4 -1.6 0 -0.5 0.4 -0.9 0.9 -0.9 1.6 0 14.6 -6.2 14.9 -7.1 0.2 -0.5 1.2 -0.9 2.2 -0.9 2 0 8.3 -3 8.8 -4.2 0.2 -0.5 1.2 -0.8 2.2 -0.8 0.9 0 2.3 -0.7 3 -1.5 0.7 -0.8 1.8 -1.5 2.5 -1.5 0.8 0 3.6 -1.1 6.3 -2.5 2.8 -1.4 5.5 -2.5 6 -2.5 0.6 0 1.7 -0.6 2.4 -1.2 1.9 -1.9 7.9 -3.8 11.7 -3.8 3.7 0 4.9 1 7.2 6 0.9 1.9 2.8 6 4.2 9 1.4 3 2.9 6.7 3.3 8.3 0.3 1.5 1 2.7 1.5 2.7 0.5 0 0.9 1.3 0.9 2.9 0 1.6 0.7 4.2 1.5 5.7 0.8 1.6 1.5 4.1 1.5 5.7 0 1.5 0.4 3.5 0.9 4.5 2.7 4.9 4.4 17.4 4.5 31.3 0.1 12.7 -0.2 15 -1.9 18.2 -1.1 2 -2.3 3.7 -2.7 3.7 -0.5 0 -0.8 0.7 -0.8 1.5 0 0.8 -0.4 1.5 -0.9 1.5 -0.5 0 -2.6 2.5 -4.6 5.5 -2.1 3 -4.2 5.5 -4.7 5.5 -0.4 0 -0.8 0.4 -0.8 0.9 0 1.9 -28.4 31.1 -30.3 31.1 -0.4 0 -1.8 1 -3 2.3 -4.2 4.2 -8.4 5.7 -16.3 5.7 -4.1 0 -7.4 -0.4 -7.4 -0.9 0 -0.5 -1.3 -1.2 -3 -1.6 -1.6 -0.4 -3 -1.1 -3 -1.6 0 -0.5 -0.8 -0.9 -1.9 -0.9 -1 0 -2.4 -0.7 -3.1 -1.5 -0.7 -0.8 -2 -1.5 -3 -1.5 -1 0 -2 -0.7 -2.4 -1.5 -0.3 -0.8 -1.2 -1.5 -2.1 -1.5 -0.9 0 -2.6 -0.9 -3.8 -2.1 -1.2 -1.1 -3.1 -2.5 -4.2 -3 -2.2 -1 -5.7 -3.1 -6.5 -3.9 -0.8 -0.8 -4 -2.7 -8.7 -5.1 -2.4 -1.3 -4.3 -2.6 -4.3 -3.1 0 -0.4 -0.8 -0.8 -1.9 -0.8 -1 0 -2.4 -0.7 -3.1 -1.5 -0.7 -0.8 -2.1 -1.5 -3 -1.5 -1 0 -2 -0.3 -2.2 -0.7 -0.4 -1.1 -6.7 -4.1 -10 -4.9 -1.6 -0.3 -2.8 -1 -2.8 -1.5 0 -0.5 -1.1 -0.9 -2.5 -0.9 -1.4 0 -2.5 -0.4 -2.5 -0.9 0 -0.5 -1.9 -1.2 -4.2 -1.6 -2.3 -0.4 -4.9 -1.1 -5.8 -1.6 -8.2 -4.2 -42.2 -4.2 -53.5 0 -6.1 2.4 -9.3 3.4 -12 3.9 -1.6 0.3 -3.5 1.1 -4.3 1.8 -0.7 0.8 -2.2 1.4 -3.3 1.4 -1 0 -1.9 0.5 -1.9 1 0 0.6 -0.6 1 -1.4 1 -1.8 0 -10.5 3.9 -13.8 6.1 -1.4 1.1 -3.3 1.9 -4.1 1.9 -0.8 0 -2 0.7 -2.7 1.5 -0.7 0.8 -2.1 1.5 -3.1 1.5 -1.1 0 -1.9 0.4 -1.9 0.9 0 0.5 -1 1.3 -2.2 1.7 -1.3 0.4 -2.5 1 -2.8 1.4 -0.5 0.8 -10.1 6.1 -15.7 8.9 -1.8 0.8 -3.3 1.9 -3.3 2.3 0 0.4 -0.8 0.8 -1.9 0.8 -1 0 -2.4 0.7 -3.1 1.5 -0.7 0.8 -2.1 1.5 -3.1 1.5 -1.1 0 -1.9 0.5 -1.9 1 0 0.6 -0.6 1 -1.2 1 -0.7 0.1 -2.9 0.8 -4.8 1.8 -3.1 1.5 -3.5 2.1 -3.2 5.1 0.2 1.8 -0.1 3.8 -0.7 4.4 -0.6 0.6 -1.1 2.5 -1.1 4.3 0 1.8 -0.6 3.4 -1.2 3.6 -1.8 0.6 -1.8 32.5 -0.1 33.6 0.7 0.4 1.5 3.8 1.9 7.5 l0.7 6.7 -4.1 0 c-3.1 0 -4.4 -0.5 -5.2 -1.9z m30.2 -104.8 c2.1 -0.9 3.8 -2 3.8 -2.5 0 -0.4 0.5 -0.8 1.1 -0.8 1.3 0 6.9 -5.5 6.9 -6.8 0 -0.5 0.7 -1.2 1.5 -1.6 0.8 -0.3 1.5 -1.2 1.5 -2.1 0 -0.8 0.5 -1.5 1 -1.5 0.6 0 1 -0.8 1 -1.8 0 -1 0.6 -2.6 1.4 -3.7 1.2 -1.9 1.9 -4.3 3.3 -12.4 1 -5.8 -3 -16.2 -8.2 -21.5 -3 -3.1 -9.3 -6.6 -11.9 -6.6 -4.9 0 -20.6 11.3 -20.6 14.8 0 0.7 -0.4 1.2 -0.8 1.2 -1 0 -4.1 6.8 -5.5 11.9 -2.4 9.1 -1.7 15.4 2.7 24 1.8 3.5 7.6 9.1 9.3 9.1 0.7 0 1.3 0.5 1.3 1 0 1.6 8 1.2 12.2 -0.7z m209 0.5 c14.5 -8.4 18 -26.7 8.5 -44.5 -3.7 -7 -17.2 -17.3 -22.7 -17.3 -4.6 0 -17 10.2 -17 14 0 0.9 -0.6 2.2 -1.2 2.9 -0.9 0.8 -1.3 4.2 -1.3 9.6 0 5.4 0.4 8.8 1.3 9.7 0.6 0.6 1.2 2.1 1.2 3.1 0 1.8 2.1 6.3 4.5 9.5 2.9 4 12.1 12.2 13.7 12.2 1 0 1.8 0.5 1.8 1 0 1.4 8.6 1.2 11.2 -0.2z"/>
 </g>
 <g fill="#da2b2e">
  <path d="M298.5 525.1 c-0.6 -0.5 -3.5 -1.2 -6.5 -1.5 -3 -0.3 -9.8 -1.2 -15 -2.1 -5.2 -0.9 -12.9 -2.1 -17 -2.6 -4.1 -0.6 -8.4 -1.4 -9.5 -1.9 -1.1 -0.5 -4.2 -1.1 -7 -1.2 l-5 -0.3 0.1 -4.5 c0.2 -5 1.8 -15.3 3.3 -21.5 0.6 -2.2 1.1 -5.5 1.1 -7.2 0 -1.8 0.4 -3.3 0.8 -3.3 0.8 0 2.5 -6.1 4.1 -15 1 -5.4 3.9 -13.7 6.7 -19.3 0.8 -1.6 1.4 -3.5 1.4 -4.4 0 -0.8 0.6 -2.7 1.4 -4.1 0.8 -1.5 1.7 -3.4 2 -4.2 0.3 -0.8 1.9 -3.7 3.6 -6.5 1.6 -2.7 3.3 -5.7 3.7 -6.5 1.1 -2.5 8.5 -12.3 11.2 -15 7.8 -7.6 17.3 -11.6 25.4 -10.7 2.8 0.4 5.5 1.1 6.1 1.7 0.5 0.5 2 1 3.3 1 1.3 0 2.3 0.4 2.3 0.9 0 0.5 1 1.3 2.2 1.7 2.7 0.8 9.8 7.9 12.3 12.2 1.1 1.7 2.3 3.2 2.7 3.2 0.4 0 0.8 0.7 0.8 1.5 0 0.8 0.4 1.5 0.9 1.5 1.4 0 13.1 22.7 13.1 25.5 0 0.8 0.5 1.5 1 1.5 0.6 0 1 1 1 2.3 0 1.2 0.7 3.5 1.5 5.1 0.8 1.5 1.5 3.8 1.5 5 0 1.2 0.5 2.7 1 3.2 0.6 0.6 1.3 3.4 1.7 6.2 0.3 2.9 1 5.2 1.4 5.2 0.5 0 0.9 0.9 0.9 2.1 0 1.2 0.6 3.5 1.4 5.2 0.8 1.8 1.7 5 1.9 7.2 0.9 7.4 2.9 18 3.9 20.1 0.5 1.1 0.8 3.8 0.6 6 l-0.3 3.9 -5.5 0.3 c-3 0.1 -6.4 0.7 -7.5 1.2 -1.1 0.5 -5.6 1.4 -10 2 -4.4 0.6 -10 1.5 -12.5 1.9 -2.5 0.5 -8.5 1.4 -13.5 2.1 -4.9 0.6 -9.8 1.6 -10.7 2.1 -2.3 1.2 -5.1 1.2 -6.3 0z"/>
  <path d="M219 512.9 c-3.6 -0.4 -8.7 -1.2 -11.5 -1.9 -2.7 -0.6 -5.6 -1.2 -6.2 -1.3 -0.7 0 -1.3 -0.4 -1.3 -0.9 0 -0.4 -1.8 -0.8 -4.1 -0.8 -2.2 0 -3.8 -0.4 -3.5 -0.9 0.3 -0.5 -1.6 -1.3 -4.2 -1.9 -12.1 -2.7 -14.8 -3.5 -15.6 -4.3 -0.6 -0.5 -2 -0.9 -3.2 -0.9 -1.2 0 -3.5 -0.7 -5 -1.5 -1.6 -0.8 -3.9 -1.5 -5.1 -1.5 -1.3 0 -2.3 -0.4 -2.3 -1 0 -0.5 -0.9 -1 -2.1 -1 -2 0 -5 -1.1 -12.9 -4.9 -4.2 -2 -5.5 -2.9 -8.3 -6 -1.2 -1.4 -3 -3.3 -3.9 -4.3 -1 -1 -1.8 -2.2 -1.8 -2.8 0 -0.5 -0.4 -1 -0.8 -1 -0.4 0 -1.5 -1.2 -2.4 -2.7 -1 -1.6 -3 -4.1 -4.5 -5.8 -1.6 -1.6 -3.5 -3.9 -4.3 -5.1 -1.4 -1.9 -8.2 -10.3 -10.5 -12.8 -0.5 -0.6 -3.7 -4.5 -7 -8.6 -3.3 -4.1 -6.2 -7.7 -6.5 -8 -0.3 -0.3 -3 -3.4 -6.1 -7 -4.7 -5.5 -5.7 -7.3 -6.1 -11.3 -1.7 -15.5 3.6 -78 7.2 -84.7 0.5 -1 1 -3 1 -4.3 0 -1.4 0.7 -3.8 1.5 -5.3 0.8 -1.6 1.5 -4.1 1.5 -5.6 0 -1.6 0.5 -2.8 1 -2.8 0.6 0 1 -1 1 -2.3 0 -1.3 0.7 -3.2 1.5 -4.3 0.8 -1 1.5 -2.5 1.5 -3.3 0 -1.9 6.1 -14.5 7.2 -14.9 0.4 -0.2 0.8 -0.8 0.8 -1.3 0 -0.8 5.9 -10.9 6.9 -11.9 1.1 -1 4.1 -6.8 4.1 -7.9 0 -0.6 -1.1 -1.1 -2.4 -1.1 -1.9 0 -3.3 1.5 -6.8 7.3 -2.5 3.9 -5.2 8.8 -6.2 10.7 -0.9 1.9 -2 4.2 -2.5 5 -3 5.5 -4.1 8.1 -4.1 9.9 0 1.2 -0.4 2.1 -0.9 2.1 -0.5 0 -1.2 1.4 -1.6 3 -0.4 1.7 -1.1 3 -1.6 3 -0.5 0 -0.9 1.6 -0.9 3.5 0 1.9 -0.4 3.5 -1 3.5 -0.5 0 -1.2 1.7 -1.6 3.8 -0.4 2 -1 4.2 -1.4 4.7 -0.4 0.6 -1.1 2.8 -1.5 5 -0.4 2.2 -1 4.5 -1.5 5 -0.4 0.6 -1 2.8 -1.3 5 -1.1 7.7 -2.9 17 -3.7 19 -0.9 2.3 -3.1 22.3 -3.9 36.4 l-0.6 9.4 -5.5 -6.1 c-11 -12 -17.3 -20 -18.9 -23.6 -1.7 -4.1 -3.8 -16.6 -4.5 -26.6 -0.8 -12.7 2.3 -47.1 4.4 -47.8 0.5 -0.2 1 -1.3 1 -2.4 0 -2.3 4.6 -7.2 7.8 -8.2 1.2 -0.4 2.2 -1.2 2.2 -1.7 0 -0.5 1.1 -0.9 2.4 -0.9 4 0 11.1 -3.7 16 -8.5 2.6 -2.5 4.9 -4.5 5.2 -4.5 0.2 0 1.2 -0.8 2.2 -1.7 1 -1 3.7 -3.3 5.9 -5.1 2.3 -1.9 5.2 -4.2 6.4 -5.3 1.2 -1 2.5 -1.9 2.8 -1.9 0.3 0 1.8 -1 3.2 -2.2 2.7 -2.5 5.5 -4.4 7.9 -5.5 0.8 -0.4 2.4 -1.5 3.5 -2.5 1.1 -1 3 -2.1 4.2 -2.4 1.3 -0.4 2.3 -1 2.3 -1.6 0 -0.5 2.6 -0.8 5.9 -0.6 6.1 0.3 10.1 -1.6 10.1 -4.9 0 -0.7 0.7 -1.3 1.5 -1.3 0.8 0 1.5 -0.4 1.5 -0.8 0 -2 33.4 -36.2 35.4 -36.2 0.3 0 2 -1.4 3.8 -3 1.8 -1.7 3.6 -3 4.1 -3 0.4 0 2 -1.1 3.5 -2.5 1.5 -1.4 3.2 -2.5 3.8 -2.5 0.6 0 1.7 -0.6 2.3 -1.4 0.7 -0.8 2.6 -2.1 4.4 -3 1.8 -0.9 3.9 -2 4.7 -2.5 0.8 -0.5 3.3 -1.7 5.5 -2.7 2.2 -1.1 4.2 -2.2 4.3 -2.6 0.2 -0.5 1.1 -0.8 2 -0.8 1 0 2.6 -0.7 3.6 -1.5 1.1 -0.8 2.7 -1.5 3.7 -1.5 0.9 0 3 -0.7 4.5 -1.5 1.6 -0.8 3.6 -1.5 4.5 -1.5 0.8 0 2.1 -0.6 2.8 -1.2 1.1 -1.1 1.2 -0.4 0.6 3.7 -0.4 2.7 -1.3 5.4 -2 6 -2.3 1.8 -9.5 14.1 -9.5 16.1 0.1 1 1.2 3.7 2.5 5.9 1.4 2.2 2.8 4.7 3.2 5.5 0.3 0.8 0.9 1.7 1.3 2 1.1 0.9 13.4 19.3 14.7 22 0.4 0.8 1.5 2.3 2.4 3.3 0.9 1 3.8 5 6.5 9 2.7 4 5.2 7.4 5.7 7.5 0.4 0.2 0.7 1 0.7 1.7 0 3 7.8 3.6 45.1 3.4 20.3 -0.1 36.9 -0.6 36.9 -1 0 -0.5 0.8 -0.9 1.9 -0.9 1 0 2.1 -0.8 2.5 -1.7 0.5 -1.8 2.6 -5.3 3.6 -6.3 0.7 -0.7 2.9 -4.3 3.7 -6 0.4 -0.8 0.9 -1.7 1.2 -2 1.6 -1.4 7.1 -10.2 7.1 -11.4 0 -0.8 0.7 -1.6 1.5 -2 0.8 -0.3 1.5 -1.2 1.5 -2 0 -0.8 0.4 -1.6 0.8 -1.8 0.9 -0.3 10.5 -15.9 13.5 -21.9 l1.8 -3.6 -3.9 -5.9 c-7.8 -11.8 -9.4 -15.3 -8.7 -18.1 0.3 -1.5 0.9 -2.2 1.3 -1.6 0.4 0.5 2.4 1.3 4.5 1.7 2 0.4 3.7 1.1 3.7 1.6 0 0.6 1.4 1 3 1 1.7 0 3 0.4 3 0.9 0 0.5 1 1.2 2.3 1.6 2.3 0.6 12 5 14.7 6.6 0.8 0.4 2.9 1.6 4.7 2.5 1.8 0.9 3.7 2.2 4.4 3 0.6 0.8 1.8 1.4 2.6 1.4 0.8 0 2.4 1 3.6 2.2 2.3 2.3 5 4.3 7.7 5.5 0.8 0.3 2.5 1.7 3.7 3 1.2 1.3 2.5 2.3 2.8 2.3 1.4 0 27 25.1 35.6 35 5.5 6.4 5.5 6.4 10.4 6.1 3.8 -0.2 6.2 0.4 10.2 2.6 2.9 1.5 5.3 3.1 5.3 3.5 0 0.4 0.7 0.8 1.5 0.8 0.9 0 1.8 0.7 2.1 1.5 0.4 0.8 1.1 1.5 1.8 1.5 0.6 0 2.2 1 3.6 2.3 1.4 1.3 3.3 2.6 4.3 3 0.9 0.3 1.7 1.1 1.7 1.7 0 0.5 0.6 1 1.4 1 0.8 0 1.6 0.7 2 1.5 0.3 0.8 1.1 1.5 1.7 1.5 0.6 0 2.2 1.1 3.5 2.5 1.3 1.4 2.6 2.5 2.9 2.5 0.6 0 7.9 6.5 10.4 9.3 0.8 0.9 2.1 1.7 2.7 1.7 0.7 0 1.4 0.3 1.6 0.8 0.5 1.2 6.8 4.2 8.8 4.2 2.1 0 7.6 2.8 10 5 2.3 2.2 5 6.7 5 8.5 0 0.8 0.4 2.3 1 3.3 0.5 0.9 1.6 9.7 2.5 19.5 1.4 16.1 1.4 19 0 31.5 -0.9 7.5 -2.1 14.8 -2.7 16.2 -2.6 6.4 -4.3 9.1 -7.9 13 -2.1 2.3 -3.9 4.6 -3.9 5.1 0 0.5 -0.5 0.9 -1 0.9 -0.6 0 -1.3 0.7 -1.7 1.6 -0.6 1.7 -11.2 13.1 -11.4 12.4 -0.1 -0.3 -0.8 -8.8 -1.5 -19 -1.3 -18.2 -2.8 -29.3 -5.9 -42 -0.9 -3.6 -2 -8.3 -2.5 -10.5 -2 -8.9 -3.5 -13.5 -4.2 -13.5 -0.5 0 -0.8 -1 -0.8 -2.3 0 -1.3 -0.7 -3.2 -1.5 -4.3 -0.8 -1 -1.5 -2.6 -1.5 -3.5 0 -0.9 -0.6 -2.9 -1.4 -4.5 -1.7 -3.5 -6.1 -13.3 -6.9 -15.4 -0.4 -0.8 -2 -3.7 -3.6 -6.5 -1.7 -2.7 -3.8 -6.5 -4.7 -8.3 -2.2 -4.4 -6.5 -7.7 -7.5 -6 -1.2 1.8 -0.2 4.2 4.2 10.6 2.1 3 3.9 6.1 3.9 6.9 0 0.7 0.4 1.3 0.8 1.3 0.9 0 5.2 8.1 5.2 9.9 0 0.6 0.5 1.1 1 1.1 0.6 0 1 1.1 1 2.5 0 1.4 0.4 2.5 1 2.5 0.5 0 1.2 1.6 1.6 3.5 0.3 1.9 1 3.8 1.5 4.1 0.5 0.3 0.9 1.3 0.9 2.2 0 0.9 0.7 3 1.5 4.6 0.8 1.5 1.5 4.1 1.5 5.7 0 1.5 0.4 3 0.9 3.3 0.5 0.3 1.2 2.7 1.6 5.3 0.4 2.7 1 5.3 1.3 5.8 1.2 1.7 3.1 16.3 4.1 30.5 0.5 7.4 1.5 20.5 2.1 29 1.4 18.8 0.9 24.2 -2.8 28.1 -4.1 4.2 -6.4 6.9 -10.2 11.9 -1.9 2.5 -4.5 5.6 -5.8 7 -1.3 1.4 -3.7 4.4 -5.4 6.8 -1.7 2.3 -3.5 4.2 -4 4.2 -0.4 0 -0.8 0.5 -0.8 1 0 0.6 -1.2 2.3 -2.6 3.8 -1.4 1.5 -3.9 4.6 -5.6 7 -1.7 2.3 -3.5 4.2 -4 4.2 -0.4 0 -0.8 0.5 -0.8 1 0 0.6 -0.8 1.8 -1.7 2.8 -3 3.1 -6.3 7.2 -6.3 7.7 0 0.3 -1.9 2.4 -4.3 4.8 -4.6 4.6 -9.8 7.7 -12.8 7.7 -1 0 -1.9 0.4 -1.9 0.9 0 0.5 -1.4 1.3 -3.2 1.6 -1.8 0.4 -3.9 1.1 -4.8 1.5 -3.1 1.5 -11.8 4 -13.9 4 -1.1 0 -2.1 0.4 -2.1 0.9 0 0.5 -2.1 1.2 -4.6 1.6 -2.6 0.4 -5.4 1 -6.3 1.5 -0.9 0.4 -4.3 1.6 -7.6 2.5 -3.3 0.9 -8 2.3 -10.5 3 -10.5 3 -26.6 5.1 -28.6 3.7 -1.4 -1 -2.4 -3.8 -3.4 -9.7 -1.1 -6.7 -2.9 -14.5 -3.9 -17 -2.3 -5.8 -4.1 -12.6 -4.1 -15.4 0 -1.7 -0.4 -3.1 -1 -3.1 -0.5 0 -1.2 -2.2 -1.6 -5 -0.4 -2.7 -1 -5 -1.5 -5 -0.5 0 -0.9 -0.8 -0.9 -1.7 0 -1 -0.7 -3.1 -1.5 -4.7 -0.8 -1.5 -1.5 -3.6 -1.5 -4.6 0 -1 -0.7 -3.1 -1.5 -4.6 -0.8 -1.6 -1.5 -3.6 -1.5 -4.6 0 -0.9 -0.3 -1.8 -0.7 -2 -1.3 -0.5 -4.3 -6.8 -4.3 -8.9 0 -1 -0.4 -1.9 -0.9 -1.9 -0.5 0 -1.3 -1 -1.7 -2.2 -0.4 -1.3 -0.9 -2.5 -1.3 -2.8 -0.8 -0.7 -2.6 -3.7 -4.6 -7.7 -3.9 -7.5 -18.1 -19.3 -23.4 -19.3 -1.1 0 -2.1 -0.5 -2.3 -1.1 -0.4 -1.3 -17 -1.4 -19.5 0 -1 0.5 -3.6 1.7 -5.8 2.7 -3.8 1.8 -17.5 14.6 -17.5 16.4 0 0.5 -0.6 1.5 -1.3 2.2 -0.6 0.7 -2.7 4.1 -4.5 7.6 -1.7 3.4 -3.6 7 -4.1 8 -2.1 3.9 -4.1 9.1 -4.1 10.6 0 0.9 -0.4 1.6 -1 1.6 -0.5 0 -1 0.8 -1 1.8 0 0.9 -0.7 3 -1.5 4.6 -0.8 1.5 -1.5 3.8 -1.5 5 0 1.1 -0.7 3 -1.5 4 -0.8 1.1 -1.5 3.5 -1.5 5.3 0 1.8 -0.4 3.3 -1 3.3 -0.5 0 -1 1 -1 2.3 0 1.2 -0.7 3.5 -1.5 5.1 -0.8 1.5 -1.5 3.9 -1.5 5.2 0 1.4 -0.7 4.1 -1.5 6.1 -0.8 1.9 -1.5 4.8 -1.5 6.3 0 1.4 -0.3 3 -0.7 3.4 -0.8 0.7 -2.9 9.3 -4 15.6 -0.9 5.3 -1 5.3 -13.3 3.9z m206.3 -22.9 c0.9 -2.2 1.7 -5.3 1.7 -6.9 0 -1.7 0.5 -3.3 1 -3.6 1.2 -0.8 1.4 -26.5 0.1 -26.5 -0.4 0 -1.1 -2.5 -1.4 -5.6 -0.3 -3.1 -1.1 -6.2 -1.6 -6.7 -0.6 -0.6 -1.1 -1.9 -1.1 -2.9 0 -1 -0.7 -1.8 -1.5 -1.8 -1.2 0 -1.4 0.7 -0.9 2.8 0.4 1.5 1.1 3.1 1.5 3.6 0.5 0.6 0.9 2.8 0.9 5.1 0 2.3 0.5 4.6 1.1 5.2 1.6 1.6 1.6 25 0.1 26.5 -0.7 0.7 -1.2 2.6 -1.2 4.4 0 1.7 -0.7 4.4 -1.4 6 -1.4 2.6 -1.3 4.4 0.2 4.4 0.4 0 1.5 -1.8 2.5 -4z m-249 -1.7 c-0.3 -2.1 -1.1 -4.1 -1.7 -4.5 -1.7 -1.1 -1.5 -39 0.2 -39.6 0.6 -0.2 1.2 -1.8 1.2 -3.6 0 -1.8 0.5 -3.7 1.1 -4.3 0.7 -0.7 0.7 -1.3 0.1 -1.7 -2.1 -1.3 -4 3.5 -6.4 16.4 -1.2 6.8 -0.4 32.3 1.1 32.8 0.6 0.2 1.1 1.3 1.1 2.3 0 2.5 1.7 5.9 3 5.9 0.5 0 0.6 -1.7 0.3 -3.7z m4.2 -61.2 c0.3 -0.5 1.9 -1.2 3.5 -1.6 1.7 -0.4 3 -1.1 3 -1.6 0 -0.5 0.8 -0.9 1.9 -0.9 1 0 2.4 -0.7 3.1 -1.5 0.7 -0.8 2.1 -1.5 3.1 -1.5 1.1 0 1.9 -0.4 1.9 -0.8 0 -0.4 1.5 -1.5 3.3 -2.3 5.6 -2.8 15.2 -8.1 15.7 -8.9 0.3 -0.4 1.5 -1 2.8 -1.4 1.2 -0.4 2.2 -1.2 2.2 -1.7 0 -0.5 0.8 -0.9 1.9 -0.9 1 0 2.4 -0.7 3.1 -1.5 0.7 -0.8 1.9 -1.5 2.7 -1.5 0.8 0 2.7 -0.8 4.1 -1.9 3.3 -2.2 12 -6.1 13.8 -6.1 0.8 0 1.4 -0.4 1.4 -1 0 -0.5 0.9 -1 1.9 -1 1.1 0 2.6 -0.6 3.3 -1.4 0.8 -0.7 2.7 -1.5 4.3 -1.8 2.7 -0.5 5.9 -1.5 12 -3.9 11.6 -4.4 51.1 -4.4 59.5 0 0.9 0.5 3.5 1.2 5.8 1.6 2.3 0.4 4.2 1.1 4.2 1.6 0 0.5 1.1 0.9 2.5 0.9 1.4 0 2.5 0.4 2.5 0.9 0 0.5 1.2 1.2 2.8 1.5 3.3 0.8 9.6 3.8 10 4.9 0.2 0.4 1.2 0.7 2.2 0.7 0.9 0 2.3 0.7 3 1.5 0.7 0.8 2.1 1.5 3.1 1.5 1.1 0 1.9 0.4 1.9 0.8 0 0.5 1.9 1.8 4.3 3.1 5 2.6 8 4.4 8.7 5.2 0.3 0.3 1.2 0.9 2 1.2 0.8 0.4 2.9 1.6 4.5 2.7 1.7 1.1 3.8 2.3 4.7 2.6 1 0.4 1.5 1 1.2 1.5 -0.3 0.5 0.4 0.9 1.6 0.9 1.1 0 2.3 0.7 2.6 1.5 0.4 0.8 1.4 1.5 2.4 1.5 1 0 2.3 0.7 3 1.5 0.7 0.8 2.1 1.5 3.1 1.5 1.1 0 1.9 0.4 1.9 0.9 0 0.5 1.4 1.2 3 1.6 1.7 0.4 3 1.1 3 1.6 0 0.5 2 0.9 4.4 0.9 4.8 0 9.8 -2.2 13.3 -5.7 1.2 -1.3 2.6 -2.3 3 -2.3 1.9 0 30.3 -29.2 30.3 -31.1 0 -0.5 0.4 -0.9 0.8 -0.9 0.5 0 2.6 -2.5 4.7 -5.5 2 -3 4.1 -5.5 4.6 -5.5 0.5 0 0.9 -0.7 0.9 -1.5 0 -0.8 0.3 -1.5 0.8 -1.5 0.4 0 1.6 -1.7 2.7 -3.7 1.7 -3.1 2 -5.5 1.9 -15.2 -0.1 -10.9 -2.2 -24 -4.5 -28.3 -0.5 -1 -0.9 -3 -0.9 -4.5 0 -1.6 -0.7 -4.1 -1.5 -5.7 -0.8 -1.5 -1.5 -4.1 -1.5 -5.7 0 -1.6 -0.4 -2.9 -0.9 -2.9 -0.5 0 -1.2 -1.2 -1.5 -2.7 -0.4 -1.6 -1.9 -5.3 -3.3 -8.3 -1.4 -3 -3.3 -7.1 -4.2 -9 -2.7 -5.8 -3.5 -6.3 -7.8 -4.8 -2.1 0.7 -4.4 1.9 -5.1 2.6 -0.7 0.6 -1.8 1.2 -2.4 1.2 -0.5 0 -3.2 1.1 -6 2.5 -2.7 1.4 -5.5 2.5 -6.3 2.5 -0.7 0 -1.8 0.7 -2.5 1.5 -0.7 0.8 -2.1 1.5 -3 1.5 -1 0 -2 0.3 -2.2 0.8 -0.5 1.2 -6.8 4.2 -8.8 4.2 -1 0 -2 0.4 -2.2 0.9 -0.3 0.9 -13.3 7.1 -14.9 7.1 -0.5 0 -0.9 0.4 -0.9 0.9 0 0.5 -1.8 1.2 -4 1.6 -2.2 0.4 -4 1.1 -4 1.6 0 0.5 -0.8 0.9 -1.9 0.9 -1 0 -3.2 0.7 -4.7 1.5 -1.6 0.8 -3.9 1.5 -5 1.5 -1.2 0 -3.5 0.7 -5 1.5 -1.6 0.8 -4.3 1.5 -6 1.5 -1.7 0 -3.4 0.3 -3.8 0.7 -1.1 1.2 -16.1 3.8 -35.6 6.2 -9.8 1.3 -58.3 1.3 -68 0 -15.2 -2 -30.3 -4.7 -34 -6.1 -2.4 -1 -10.2 -3 -13.7 -3.5 -1.8 -0.3 -3.3 -0.9 -3.3 -1.3 0 -0.5 -1.8 -1.1 -4 -1.5 -2.2 -0.4 -4.2 -1.1 -4.6 -1.6 -0.3 -0.5 -1.3 -0.9 -2.2 -0.9 -0.9 0 -3 -0.7 -4.6 -1.5 -1.5 -0.8 -3.5 -1.5 -4.2 -1.5 -0.8 0 -1.4 -0.4 -1.4 -1 0 -0.5 -0.5 -1 -1.1 -1 -0.6 0 -4 -1.3 -7.6 -3 -3.5 -1.7 -7.1 -3 -7.9 -3 -0.8 0 -1.4 -0.4 -1.4 -1 0 -0.5 -0.5 -1 -1.2 -1 -1.1 0 -11.4 -4.6 -17 -7.6 -1.4 -0.8 -3.3 -1.4 -4.2 -1.4 -0.9 0 -1.6 -0.4 -1.6 -1 0 -0.5 -0.7 -1 -1.6 -1 -0.9 0 -2.9 -0.7 -4.5 -1.5 -1.6 -0.8 -4.2 -2.2 -5.9 -3 -2.9 -1.6 -2.9 -1.6 -5.5 2.4 -1.4 2.3 -2.5 4.6 -2.5 5.2 0 0.6 -0.7 1.7 -1.5 2.5 -0.8 0.9 -1.5 2.4 -1.5 3.5 0 1 -0.4 1.9 -1 1.9 -0.5 0 -1 0.8 -1 1.8 0 1 -0.7 2.7 -1.5 3.8 -0.8 1 -1.5 2.9 -1.5 4.2 0 1.2 -0.4 2.2 -0.9 2.2 -0.6 0 -1.3 2 -1.7 4.5 -0.3 2.5 -1 4.8 -1.5 5.1 -0.5 0.2 -1.1 2.7 -1.5 5.4 -0.4 2.8 -1 5 -1.5 5 -0.5 0 -0.9 2.2 -0.9 4.8 0 2.6 -0.5 5.3 -1.2 6 -0.7 0.7 -1.3 5.7 -1.6 12.3 -0.4 10.7 -0.3 11.4 2.2 16.4 1.5 2.8 4 6.5 5.7 8.2 1.6 1.8 2.9 3.5 2.9 3.8 0 0.3 1.2 1.8 2.8 3.4 1.5 1.5 4.9 5.4 7.7 8.6 5.2 6.1 13.9 14.9 17.4 17.6 1.1 0.8 3.8 3.2 6 5.2 2.2 2 4.5 3.7 5.1 3.7 0.5 0 1 0.3 1 0.8 0 0.4 2.1 1.9 4.8 3.2 2.6 1.4 4.9 2.8 5 3.3 0.5 1 10 0.9 10.7 -0.2z"/>
  <path d="M62.4 275.6 c-0.3 -0.7 0 -5.1 0.6 -9.7 0.5 -4.6 1 -12.4 1 -17.4 0 -9 2.2 -56.9 4 -86.5 1.1 -19 3.1 -57.6 3.7 -72.8 l0.5 -11.2 3.6 -2.5 c4.3 -2.9 8.3 -3.2 12.2 -0.8 3.4 2 5 5.2 5 10.1 0 2 0.7 6.8 1.5 10.7 0.8 3.8 1.5 8.5 1.5 10.4 0 3.1 2.1 15.9 4 24.1 0.9 4.1 2.8 15.1 4 23 0.4 3 1.5 8.9 2.4 13 0.9 4.1 2.1 10.2 2.7 13.4 0.5 3.2 1.4 6.7 1.9 7.7 0.6 1 1 2.9 1 4.3 0 1.5 0.9 5.9 2.1 9.9 1.1 3.9 2.5 9.1 3 11.5 0.4 2.3 1.2 5 1.7 6 0.5 0.9 1.2 3.1 1.5 4.9 0.4 1.7 1.6 5.2 2.7 7.7 1.2 2.5 1.9 4.9 1.6 5.4 -0.3 0.5 -3 1.2 -6.1 1.5 -3 0.3 -6.2 1.3 -7.1 2.2 -0.9 0.8 -2.9 2.2 -4.5 3 -1.6 0.9 -2.9 2 -2.9 2.5 0 0.6 -0.5 1 -1.1 1 -0.6 0 -2.8 1.8 -5 4 -2.2 2.2 -4.3 4 -4.7 4 -0.4 0 -2.8 1.9 -5.3 4.3 -2.5 2.3 -6 5.3 -7.9 6.7 -1.8 1.4 -3.9 3.1 -4.6 3.8 -0.7 0.6 -1.5 1.2 -1.9 1.2 -0.3 0 -1.5 0.9 -2.7 1.9 -3 2.9 -7.8 4.4 -8.4 2.7z"/>
  <path d="M534 275.5 c-1.4 -0.8 -3.2 -1.7 -4 -2.1 -0.8 -0.4 -1.7 -1 -2 -1.4 -0.3 -0.3 -2.7 -2.3 -5.5 -4.4 -2.7 -2.1 -7.8 -6.3 -11.3 -9.3 -3.5 -3.1 -7.5 -6.5 -9 -7.7 -1.5 -1.1 -2.9 -2.3 -3.2 -2.6 -1.5 -1.7 -8.9 -7 -9.8 -7 -0.6 0 -1.2 -0.5 -1.4 -1 -0.2 -0.6 -3 -1.4 -6.2 -1.7 -5.6 -0.6 -8.4 -2.6 -5.8 -4.2 0.6 -0.3 1.4 -1.9 1.7 -3.4 0.4 -1.5 1.1 -3 1.6 -3.3 0.5 -0.3 0.9 -1.6 0.9 -2.8 0 -1.3 0.7 -3.7 1.5 -5.2 0.8 -1.6 1.5 -4.4 1.5 -6.1 0 -1.8 0.4 -3.3 0.9 -3.3 0.5 0 1.1 -2.2 1.5 -5 0.4 -2.7 1.1 -5.2 1.6 -5.5 0.6 -0.3 1 -2.2 1 -4.1 0 -2 0.5 -4.4 1 -5.4 0.6 -1 1.4 -4.5 1.9 -7.7 0.6 -3.2 1.7 -9.2 2.6 -13.3 0.9 -4.1 2 -10 2.5 -13 0.5 -3 1.6 -9.3 2.5 -14 1.9 -10.9 4.5 -26 5.5 -33 1.3 -9.1 4 -26.3 4.6 -29.7 0.4 -1.9 1.2 -3.3 2 -3.3 0.8 0 1.4 -0.4 1.4 -1 0 -0.5 1.6 -1.2 3.6 -1.6 2.7 -0.5 4.7 -0.1 7.9 1.5 l4.3 2.1 0.5 7.8 c0.2 4.2 1 17.6 1.6 29.7 0.6 12.1 1.6 29.7 2.1 39 1.6 27.3 3.1 57.2 4.1 82.5 0.5 12.9 1.2 27.4 1.5 32.3 0.4 4.8 0.3 8.7 -0.2 8.7 -0.5 0 -2 -0.7 -3.4 -1.5z"/>
  <path d="M290 251 c-3.6 -0.4 -11.3 -0.8 -17.1 -0.9 l-10.6 -0.1 -2.9 -3.3 c-3.5 -4 -5.3 -6.6 -6 -8.9 -0.4 -1 -0.9 -1.8 -1.3 -1.8 -0.4 0 -1.7 -1.8 -3 -4 -1.2 -2.2 -2.6 -4 -3.2 -4 -0.5 0 -0.9 -0.6 -0.9 -1.4 0 -0.8 -0.3 -1.6 -0.7 -1.8 -0.5 -0.1 -3 -3.6 -5.8 -7.7 -7.1 -10.4 -8.4 -12.4 -9.2 -14.1 -0.3 -0.8 -0.9 -1.7 -1.3 -2 -1.4 -1.2 -4 -6.1 -4 -7.5 0 -1.5 1.2 -3.6 7.7 -13.7 1.5 -2.4 3.4 -6.5 4.3 -9.2 0.8 -2.7 2.2 -5.2 3 -5.6 8.3 -4.1 47.8 -9.4 64 -8.6 15.8 0.8 45.3 5.1 45.8 6.7 0.2 0.5 2.3 0.9 4.6 0.9 6.4 0 9.6 1.9 9.6 5.7 0 3.1 10.4 21.3 12.2 21.3 0.4 0 0.8 1.1 0.8 2.5 0 1.4 -0.4 2.5 -1 2.5 -0.5 0 -1.2 1.1 -1.6 2.5 -0.3 1.4 -1 2.5 -1.5 2.5 -0.5 0 -0.9 0.7 -0.9 1.5 0 0.9 -0.7 1.8 -1.5 2.1 -0.8 0.4 -1.5 1.4 -1.5 2.4 0 1 -0.3 2 -0.8 2.2 -0.4 0.2 -3.5 4.6 -6.9 9.8 -3.5 5.2 -6.7 10 -7.3 10.7 -0.5 0.7 -1 1.5 -1 1.9 0 0.3 -1.8 3.3 -4 6.6 -2.2 3.3 -4 6.3 -4 6.7 -0.1 0.3 -0.9 1.5 -1.8 2.7 -1.6 1.9 -3.2 2.1 -17.7 2.7 -8.8 0.4 -18.7 0.9 -22 1.1 -3.3 0.2 -8.9 0.1 -12.5 -0.4z"/>
 </g>
 <g fill="#010101">
  <path d="M189.8 393.2 c-2.1 -0.2 -3.8 -0.7 -3.8 -1.3 0 -0.5 -0.6 -0.9 -1.3 -0.9 -0.7 0 -2.8 -1.4 -4.6 -3.2 -10 -9.8 -11.8 -27.2 -4.5 -43.6 1 -2.3 2.1 -4.2 2.6 -4.2 0.4 0 0.8 -0.5 0.8 -1.2 0 -2.1 9.6 -10.5 14.5 -12.7 13.6 -6 26.2 1.2 31.4 18 0.6 1.9 1.1 4.3 1.1 5.2 0 0.9 0.3 1.8 0.8 2.1 0.4 0.2 5.7 -0.2 11.7 -1 6.1 -0.7 22.7 -2.1 37 -2.9 23.7 -1.5 28.3 -1.5 51 -0.1 13.8 0.8 29.6 2.1 35.3 2.9 5.7 0.7 10.5 1 10.6 0.7 0.2 -0.3 0.7 -2.6 1 -5.2 0.4 -2.6 1.1 -5 1.7 -5.3 0.5 -0.4 0.9 -1.4 0.9 -2.3 0 -2.3 7.6 -10.2 11.8 -12.4 7.8 -4.1 18.8 -1 27.8 7.9 8.2 8.1 11.5 16.9 11.5 30.6 0 8.5 -0.3 10.4 -2.6 15.1 -2.6 5.2 -6.6 9.7 -11.4 12.4 -2.7 1.6 -16.4 1.8 -16.9 0.2 -0.2 -0.5 -1.1 -1 -2.1 -1 -1.5 0 -10.8 -8.3 -13.6 -12.2 -2.4 -3.3 -4.5 -7.8 -4.5 -9.6 0 -1.2 -0.4 -2.4 -1 -2.7 -0.5 -0.3 -1.2 -2.8 -1.6 -5.4 l-0.6 -4.9 -5.7 -0.5 c-3.1 -0.3 -9.4 -1 -14.1 -1.6 -19.8 -2.4 -38.4 -3.3 -58.5 -2.8 -22.9 0.6 -45.1 2.1 -53 3.7 -2.7 0.6 -7.2 1.1 -9.8 1.3 -4.7 0.2 -4.9 0.4 -6.3 4.2 -0.7 2.2 -1.4 4.9 -1.4 6 0 1.1 -0.7 2.9 -1.5 3.9 -0.8 1.1 -1.5 2.8 -1.5 3.8 0 1 -0.4 1.8 -1 1.8 -0.5 0 -1 0.7 -1 1.5 0 0.9 -0.7 1.8 -1.5 2.1 -0.8 0.4 -1.5 1.1 -1.5 1.6 0 1.3 -5.6 6.8 -6.9 6.8 -0.6 0 -1.1 0.4 -1.1 0.8 0 2.4 -11.2 5.1 -18.2 4.4z"/>
 </g>
</svg>